<mxfile host="app.diagrams.net" modified="2021-01-08T07:35:14.035Z" agent="5.0 (Macintosh; Intel Mac OS X 10_15_7) AppleWebKit/537.36 (KHTML, like Gecko) Chrome/87.0.4280.141 Safari/537.36" etag="LrYomA24Xv8iEUmy4EYL" version="14.1.8" type="github">
  <diagram id="ra-ciaEPlCfUXJufHcY9" name="Page-1">
    <mxGraphModel dx="1780" dy="1222" grid="1" gridSize="10" guides="1" tooltips="1" connect="1" arrows="1" fold="1" page="1" pageScale="1" pageWidth="827" pageHeight="1169" math="0" shadow="0">
      <root>
        <mxCell id="0" />
        <mxCell id="1" parent="0" />
        <mxCell id="N_JOfj5veMbjkHJK9RhT-34" value="" style="rounded=0;whiteSpace=wrap;html=1;" vertex="1" parent="1">
          <mxGeometry x="640" y="360" width="420" height="130" as="geometry" />
        </mxCell>
        <mxCell id="N_JOfj5veMbjkHJK9RhT-10" style="edgeStyle=orthogonalEdgeStyle;rounded=0;orthogonalLoop=1;jettySize=auto;html=1;entryX=0;entryY=0.5;entryDx=0;entryDy=0;" edge="1" parent="1" source="N_JOfj5veMbjkHJK9RhT-1" target="N_JOfj5veMbjkHJK9RhT-2">
          <mxGeometry relative="1" as="geometry" />
        </mxCell>
        <mxCell id="N_JOfj5veMbjkHJK9RhT-19" style="edgeStyle=orthogonalEdgeStyle;rounded=0;orthogonalLoop=1;jettySize=auto;html=1;entryX=0;entryY=0.5;entryDx=0;entryDy=0;" edge="1" parent="1" source="N_JOfj5veMbjkHJK9RhT-1" target="N_JOfj5veMbjkHJK9RhT-3">
          <mxGeometry relative="1" as="geometry" />
        </mxCell>
        <mxCell id="N_JOfj5veMbjkHJK9RhT-20" style="edgeStyle=orthogonalEdgeStyle;rounded=0;orthogonalLoop=1;jettySize=auto;html=1;entryX=0;entryY=0.5;entryDx=0;entryDy=0;" edge="1" parent="1" source="N_JOfj5veMbjkHJK9RhT-1" target="N_JOfj5veMbjkHJK9RhT-4">
          <mxGeometry relative="1" as="geometry" />
        </mxCell>
        <mxCell id="N_JOfj5veMbjkHJK9RhT-58" value="body" style="edgeLabel;html=1;align=center;verticalAlign=middle;resizable=0;points=[];" vertex="1" connectable="0" parent="N_JOfj5veMbjkHJK9RhT-20">
          <mxGeometry x="-0.8619" y="2" relative="1" as="geometry">
            <mxPoint as="offset" />
          </mxGeometry>
        </mxCell>
        <mxCell id="N_JOfj5veMbjkHJK9RhT-1" value="program" style="rounded=1;whiteSpace=wrap;html=1;" vertex="1" parent="1">
          <mxGeometry x="16" y="300" width="90" height="30" as="geometry" />
        </mxCell>
        <mxCell id="N_JOfj5veMbjkHJK9RhT-11" value="specifier" style="edgeStyle=orthogonalEdgeStyle;rounded=0;orthogonalLoop=1;jettySize=auto;html=1;entryX=0;entryY=0.5;entryDx=0;entryDy=0;" edge="1" parent="1" source="N_JOfj5veMbjkHJK9RhT-2" target="N_JOfj5veMbjkHJK9RhT-5">
          <mxGeometry relative="1" as="geometry" />
        </mxCell>
        <mxCell id="N_JOfj5veMbjkHJK9RhT-12" style="edgeStyle=orthogonalEdgeStyle;rounded=0;orthogonalLoop=1;jettySize=auto;html=1;entryX=0;entryY=0.5;entryDx=0;entryDy=0;" edge="1" parent="1" source="N_JOfj5veMbjkHJK9RhT-2" target="N_JOfj5veMbjkHJK9RhT-6">
          <mxGeometry relative="1" as="geometry" />
        </mxCell>
        <mxCell id="N_JOfj5veMbjkHJK9RhT-17" value="source" style="edgeLabel;html=1;align=center;verticalAlign=middle;resizable=0;points=[];" vertex="1" connectable="0" parent="N_JOfj5veMbjkHJK9RhT-12">
          <mxGeometry x="0.0462" y="-4" relative="1" as="geometry">
            <mxPoint as="offset" />
          </mxGeometry>
        </mxCell>
        <mxCell id="N_JOfj5veMbjkHJK9RhT-2" value="ImportDeclaration" style="rounded=1;whiteSpace=wrap;html=1;" vertex="1" parent="1">
          <mxGeometry x="200" y="110" width="120" height="30" as="geometry" />
        </mxCell>
        <mxCell id="N_JOfj5veMbjkHJK9RhT-22" value="expression" style="edgeStyle=orthogonalEdgeStyle;rounded=0;orthogonalLoop=1;jettySize=auto;html=1;entryX=0;entryY=0.5;entryDx=0;entryDy=0;" edge="1" parent="1" source="N_JOfj5veMbjkHJK9RhT-3" target="N_JOfj5veMbjkHJK9RhT-21">
          <mxGeometry relative="1" as="geometry" />
        </mxCell>
        <mxCell id="N_JOfj5veMbjkHJK9RhT-3" value="ExpressionStatement" style="rounded=1;whiteSpace=wrap;html=1;" vertex="1" parent="1">
          <mxGeometry x="190" y="300" width="140" height="30" as="geometry" />
        </mxCell>
        <mxCell id="N_JOfj5veMbjkHJK9RhT-4" value="ExpressionStatement" style="rounded=1;whiteSpace=wrap;html=1;" vertex="1" parent="1">
          <mxGeometry x="200" y="750" width="140" height="30" as="geometry" />
        </mxCell>
        <mxCell id="N_JOfj5veMbjkHJK9RhT-14" style="edgeStyle=orthogonalEdgeStyle;rounded=0;orthogonalLoop=1;jettySize=auto;html=1;entryX=0;entryY=0.5;entryDx=0;entryDy=0;" edge="1" parent="1" source="N_JOfj5veMbjkHJK9RhT-5" target="N_JOfj5veMbjkHJK9RhT-8">
          <mxGeometry relative="1" as="geometry" />
        </mxCell>
        <mxCell id="N_JOfj5veMbjkHJK9RhT-15" value="local" style="edgeLabel;html=1;align=center;verticalAlign=middle;resizable=0;points=[];" vertex="1" connectable="0" parent="N_JOfj5veMbjkHJK9RhT-14">
          <mxGeometry x="-0.1778" y="-1" relative="1" as="geometry">
            <mxPoint as="offset" />
          </mxGeometry>
        </mxCell>
        <mxCell id="N_JOfj5veMbjkHJK9RhT-5" value="ImportDefaultSpecifier" style="rounded=1;whiteSpace=wrap;html=1;" vertex="1" parent="1">
          <mxGeometry x="390" y="30" width="140" height="30" as="geometry" />
        </mxCell>
        <mxCell id="N_JOfj5veMbjkHJK9RhT-18" value="value" style="edgeStyle=orthogonalEdgeStyle;rounded=0;orthogonalLoop=1;jettySize=auto;html=1;entryX=0;entryY=0.5;entryDx=0;entryDy=0;" edge="1" parent="1" source="N_JOfj5veMbjkHJK9RhT-6" target="N_JOfj5veMbjkHJK9RhT-7">
          <mxGeometry relative="1" as="geometry" />
        </mxCell>
        <mxCell id="N_JOfj5veMbjkHJK9RhT-6" value="Literal" style="rounded=1;whiteSpace=wrap;html=1;" vertex="1" parent="1">
          <mxGeometry x="390" y="160" width="140" height="30" as="geometry" />
        </mxCell>
        <mxCell id="N_JOfj5veMbjkHJK9RhT-7" value="./b.js" style="rounded=1;whiteSpace=wrap;html=1;" vertex="1" parent="1">
          <mxGeometry x="610" y="160" width="140" height="30" as="geometry" />
        </mxCell>
        <mxCell id="N_JOfj5veMbjkHJK9RhT-16" value="name" style="edgeStyle=orthogonalEdgeStyle;rounded=0;orthogonalLoop=1;jettySize=auto;html=1;entryX=0;entryY=0.5;entryDx=0;entryDy=0;" edge="1" parent="1" source="N_JOfj5veMbjkHJK9RhT-8" target="N_JOfj5veMbjkHJK9RhT-9">
          <mxGeometry relative="1" as="geometry" />
        </mxCell>
        <mxCell id="N_JOfj5veMbjkHJK9RhT-8" value="Identifier" style="rounded=1;whiteSpace=wrap;html=1;" vertex="1" parent="1">
          <mxGeometry x="620" y="30" width="140" height="30" as="geometry" />
        </mxCell>
        <mxCell id="N_JOfj5veMbjkHJK9RhT-9" value="add" style="rounded=1;whiteSpace=wrap;html=1;" vertex="1" parent="1">
          <mxGeometry x="830" y="30" width="140" height="30" as="geometry" />
        </mxCell>
        <mxCell id="N_JOfj5veMbjkHJK9RhT-24" value="callee" style="edgeStyle=orthogonalEdgeStyle;rounded=0;orthogonalLoop=1;jettySize=auto;html=1;entryX=0;entryY=0.5;entryDx=0;entryDy=0;" edge="1" parent="1" source="N_JOfj5veMbjkHJK9RhT-21" target="N_JOfj5veMbjkHJK9RhT-23">
          <mxGeometry relative="1" as="geometry" />
        </mxCell>
        <mxCell id="N_JOfj5veMbjkHJK9RhT-41" value="arguments" style="edgeStyle=orthogonalEdgeStyle;rounded=0;orthogonalLoop=1;jettySize=auto;html=1;entryX=0;entryY=0.5;entryDx=0;entryDy=0;" edge="1" parent="1" source="N_JOfj5veMbjkHJK9RhT-21" target="N_JOfj5veMbjkHJK9RhT-34">
          <mxGeometry relative="1" as="geometry" />
        </mxCell>
        <mxCell id="N_JOfj5veMbjkHJK9RhT-21" value="CallExpression" style="rounded=1;whiteSpace=wrap;html=1;" vertex="1" parent="1">
          <mxGeometry x="411" y="300" width="140" height="30" as="geometry" />
        </mxCell>
        <mxCell id="N_JOfj5veMbjkHJK9RhT-23" value="Identifier" style="rounded=1;whiteSpace=wrap;html=1;" vertex="1" parent="1">
          <mxGeometry x="640" y="250" width="140" height="30" as="geometry" />
        </mxCell>
        <mxCell id="N_JOfj5veMbjkHJK9RhT-28" value="name" style="edgeStyle=orthogonalEdgeStyle;rounded=0;orthogonalLoop=1;jettySize=auto;html=1;entryX=0;entryY=0.5;entryDx=0;entryDy=0;" edge="1" target="N_JOfj5veMbjkHJK9RhT-29" parent="1">
          <mxGeometry relative="1" as="geometry">
            <mxPoint x="780" y="265" as="sourcePoint" />
          </mxGeometry>
        </mxCell>
        <mxCell id="N_JOfj5veMbjkHJK9RhT-29" value="add" style="rounded=1;whiteSpace=wrap;html=1;" vertex="1" parent="1">
          <mxGeometry x="850" y="250" width="140" height="30" as="geometry" />
        </mxCell>
        <mxCell id="N_JOfj5veMbjkHJK9RhT-37" style="edgeStyle=orthogonalEdgeStyle;rounded=0;orthogonalLoop=1;jettySize=auto;html=1;" edge="1" parent="1" source="N_JOfj5veMbjkHJK9RhT-30" target="N_JOfj5veMbjkHJK9RhT-35">
          <mxGeometry relative="1" as="geometry" />
        </mxCell>
        <mxCell id="N_JOfj5veMbjkHJK9RhT-39" value="value" style="edgeLabel;html=1;align=center;verticalAlign=middle;resizable=0;points=[];" vertex="1" connectable="0" parent="N_JOfj5veMbjkHJK9RhT-37">
          <mxGeometry x="-0.225" y="-1" relative="1" as="geometry">
            <mxPoint as="offset" />
          </mxGeometry>
        </mxCell>
        <mxCell id="N_JOfj5veMbjkHJK9RhT-30" value="Literal" style="rounded=1;whiteSpace=wrap;html=1;" vertex="1" parent="1">
          <mxGeometry x="660" y="380" width="140" height="30" as="geometry" />
        </mxCell>
        <mxCell id="N_JOfj5veMbjkHJK9RhT-38" style="edgeStyle=orthogonalEdgeStyle;rounded=0;orthogonalLoop=1;jettySize=auto;html=1;entryX=0;entryY=0.5;entryDx=0;entryDy=0;" edge="1" parent="1" source="N_JOfj5veMbjkHJK9RhT-31" target="N_JOfj5veMbjkHJK9RhT-36">
          <mxGeometry relative="1" as="geometry" />
        </mxCell>
        <mxCell id="N_JOfj5veMbjkHJK9RhT-40" value="value" style="edgeLabel;html=1;align=center;verticalAlign=middle;resizable=0;points=[];" vertex="1" connectable="0" parent="N_JOfj5veMbjkHJK9RhT-38">
          <mxGeometry x="-0.125" y="-1" relative="1" as="geometry">
            <mxPoint as="offset" />
          </mxGeometry>
        </mxCell>
        <mxCell id="N_JOfj5veMbjkHJK9RhT-31" value="Literal" style="rounded=1;whiteSpace=wrap;html=1;" vertex="1" parent="1">
          <mxGeometry x="660" y="440" width="140" height="30" as="geometry" />
        </mxCell>
        <mxCell id="N_JOfj5veMbjkHJK9RhT-35" value="1" style="rounded=1;whiteSpace=wrap;html=1;" vertex="1" parent="1">
          <mxGeometry x="880" y="380" width="140" height="30" as="geometry" />
        </mxCell>
        <mxCell id="N_JOfj5veMbjkHJK9RhT-36" value="2" style="rounded=1;whiteSpace=wrap;html=1;" vertex="1" parent="1">
          <mxGeometry x="880" y="440" width="140" height="30" as="geometry" />
        </mxCell>
        <mxCell id="N_JOfj5veMbjkHJK9RhT-43" value="expression" style="edgeStyle=orthogonalEdgeStyle;rounded=0;orthogonalLoop=1;jettySize=auto;html=1;entryX=0;entryY=0.5;entryDx=0;entryDy=0;" edge="1" target="N_JOfj5veMbjkHJK9RhT-46" parent="1">
          <mxGeometry relative="1" as="geometry">
            <mxPoint x="340" y="765" as="sourcePoint" />
          </mxGeometry>
        </mxCell>
        <mxCell id="N_JOfj5veMbjkHJK9RhT-44" value="callee" style="edgeStyle=orthogonalEdgeStyle;rounded=0;orthogonalLoop=1;jettySize=auto;html=1;entryX=0;entryY=0.5;entryDx=0;entryDy=0;" edge="1" source="N_JOfj5veMbjkHJK9RhT-46" target="N_JOfj5veMbjkHJK9RhT-47" parent="1">
          <mxGeometry relative="1" as="geometry">
            <Array as="points">
              <mxPoint x="610" y="765" />
              <mxPoint x="610" y="615" />
            </Array>
          </mxGeometry>
        </mxCell>
        <mxCell id="N_JOfj5veMbjkHJK9RhT-45" value="arguments" style="edgeStyle=orthogonalEdgeStyle;rounded=0;orthogonalLoop=1;jettySize=auto;html=1;entryX=0;entryY=0.5;entryDx=0;entryDy=0;" edge="1" source="N_JOfj5veMbjkHJK9RhT-46" target="N_JOfj5veMbjkHJK9RhT-52" parent="1">
          <mxGeometry relative="1" as="geometry">
            <mxPoint x="650" y="874.9999999999998" as="targetPoint" />
            <Array as="points">
              <mxPoint x="610" y="765" />
              <mxPoint x="610" y="845" />
            </Array>
          </mxGeometry>
        </mxCell>
        <mxCell id="N_JOfj5veMbjkHJK9RhT-46" value="CallExpression" style="rounded=1;whiteSpace=wrap;html=1;" vertex="1" parent="1">
          <mxGeometry x="421" y="750" width="140" height="30" as="geometry" />
        </mxCell>
        <mxCell id="N_JOfj5veMbjkHJK9RhT-47" value="MemberExpress" style="rounded=1;whiteSpace=wrap;html=1;" vertex="1" parent="1">
          <mxGeometry x="650" y="600" width="140" height="30" as="geometry" />
        </mxCell>
        <mxCell id="N_JOfj5veMbjkHJK9RhT-48" value="object" style="edgeStyle=orthogonalEdgeStyle;rounded=0;orthogonalLoop=1;jettySize=auto;html=1;entryX=0;entryY=0.5;entryDx=0;entryDy=0;" edge="1" target="N_JOfj5veMbjkHJK9RhT-49" parent="1">
          <mxGeometry relative="1" as="geometry">
            <mxPoint x="790" y="615" as="sourcePoint" />
          </mxGeometry>
        </mxCell>
        <mxCell id="N_JOfj5veMbjkHJK9RhT-73" style="edgeStyle=orthogonalEdgeStyle;rounded=0;orthogonalLoop=1;jettySize=auto;html=1;entryX=0;entryY=0.5;entryDx=0;entryDy=0;" edge="1" parent="1" source="N_JOfj5veMbjkHJK9RhT-49" target="N_JOfj5veMbjkHJK9RhT-62">
          <mxGeometry relative="1" as="geometry" />
        </mxCell>
        <mxCell id="N_JOfj5veMbjkHJK9RhT-75" value="callee" style="edgeLabel;html=1;align=center;verticalAlign=middle;resizable=0;points=[];" vertex="1" connectable="0" parent="N_JOfj5veMbjkHJK9RhT-73">
          <mxGeometry x="0.0458" y="2" relative="1" as="geometry">
            <mxPoint y="-1" as="offset" />
          </mxGeometry>
        </mxCell>
        <mxCell id="N_JOfj5veMbjkHJK9RhT-49" value="CallExpression" style="rounded=1;whiteSpace=wrap;html=1;" vertex="1" parent="1">
          <mxGeometry x="880" y="600" width="140" height="30" as="geometry" />
        </mxCell>
        <mxCell id="N_JOfj5veMbjkHJK9RhT-77" value="params" style="edgeStyle=orthogonalEdgeStyle;rounded=0;orthogonalLoop=1;jettySize=auto;html=1;entryX=0;entryY=0.5;entryDx=0;entryDy=0;" edge="1" parent="1" source="N_JOfj5veMbjkHJK9RhT-52" target="N_JOfj5veMbjkHJK9RhT-76">
          <mxGeometry relative="1" as="geometry" />
        </mxCell>
        <mxCell id="N_JOfj5veMbjkHJK9RhT-81" value="body" style="edgeStyle=orthogonalEdgeStyle;rounded=0;orthogonalLoop=1;jettySize=auto;html=1;entryX=0;entryY=0.5;entryDx=0;entryDy=0;" edge="1" parent="1" source="N_JOfj5veMbjkHJK9RhT-52" target="N_JOfj5veMbjkHJK9RhT-80">
          <mxGeometry relative="1" as="geometry" />
        </mxCell>
        <mxCell id="N_JOfj5veMbjkHJK9RhT-52" value="FucntionExpression" style="rounded=1;whiteSpace=wrap;html=1;" vertex="1" parent="1">
          <mxGeometry x="670" y="830" width="140" height="30" as="geometry" />
        </mxCell>
        <mxCell id="N_JOfj5veMbjkHJK9RhT-59" value="" style="rounded=0;whiteSpace=wrap;html=1;" vertex="1" parent="1">
          <mxGeometry x="1120" y="640" width="420" height="70" as="geometry" />
        </mxCell>
        <mxCell id="N_JOfj5veMbjkHJK9RhT-61" value="arguments" style="edgeStyle=orthogonalEdgeStyle;rounded=0;orthogonalLoop=1;jettySize=auto;html=1;entryX=0;entryY=0.5;entryDx=0;entryDy=0;exitX=1;exitY=0.5;exitDx=0;exitDy=0;" edge="1" target="N_JOfj5veMbjkHJK9RhT-59" parent="1" source="N_JOfj5veMbjkHJK9RhT-49">
          <mxGeometry relative="1" as="geometry">
            <mxPoint x="1040" y="715" as="sourcePoint" />
          </mxGeometry>
        </mxCell>
        <mxCell id="N_JOfj5veMbjkHJK9RhT-62" value="Import" style="rounded=1;whiteSpace=wrap;html=1;" vertex="1" parent="1">
          <mxGeometry x="1120" y="510" width="140" height="30" as="geometry" />
        </mxCell>
        <mxCell id="N_JOfj5veMbjkHJK9RhT-65" style="edgeStyle=orthogonalEdgeStyle;rounded=0;orthogonalLoop=1;jettySize=auto;html=1;" edge="1" source="N_JOfj5veMbjkHJK9RhT-67" target="N_JOfj5veMbjkHJK9RhT-71" parent="1">
          <mxGeometry relative="1" as="geometry" />
        </mxCell>
        <mxCell id="N_JOfj5veMbjkHJK9RhT-66" value="value" style="edgeLabel;html=1;align=center;verticalAlign=middle;resizable=0;points=[];" vertex="1" connectable="0" parent="N_JOfj5veMbjkHJK9RhT-65">
          <mxGeometry x="-0.225" y="-1" relative="1" as="geometry">
            <mxPoint as="offset" />
          </mxGeometry>
        </mxCell>
        <mxCell id="N_JOfj5veMbjkHJK9RhT-67" value="Literal" style="rounded=1;whiteSpace=wrap;html=1;" vertex="1" parent="1">
          <mxGeometry x="1140" y="658" width="140" height="30" as="geometry" />
        </mxCell>
        <mxCell id="N_JOfj5veMbjkHJK9RhT-71" value="./c" style="rounded=1;whiteSpace=wrap;html=1;" vertex="1" parent="1">
          <mxGeometry x="1360" y="658" width="140" height="30" as="geometry" />
        </mxCell>
        <mxCell id="N_JOfj5veMbjkHJK9RhT-79" value="name" style="edgeStyle=orthogonalEdgeStyle;rounded=0;orthogonalLoop=1;jettySize=auto;html=1;" edge="1" parent="1" source="N_JOfj5veMbjkHJK9RhT-76">
          <mxGeometry relative="1" as="geometry">
            <mxPoint x="1100" y="784.9999999999998" as="targetPoint" />
          </mxGeometry>
        </mxCell>
        <mxCell id="N_JOfj5veMbjkHJK9RhT-76" value="Identifier" style="rounded=1;whiteSpace=wrap;html=1;" vertex="1" parent="1">
          <mxGeometry x="880" y="770" width="140" height="30" as="geometry" />
        </mxCell>
        <mxCell id="N_JOfj5veMbjkHJK9RhT-78" value="del" style="rounded=1;whiteSpace=wrap;html=1;" vertex="1" parent="1">
          <mxGeometry x="1101" y="770" width="140" height="30" as="geometry" />
        </mxCell>
        <mxCell id="N_JOfj5veMbjkHJK9RhT-83" value="body" style="edgeStyle=orthogonalEdgeStyle;rounded=0;orthogonalLoop=1;jettySize=auto;html=1;entryX=0;entryY=0.5;entryDx=0;entryDy=0;" edge="1" parent="1" source="N_JOfj5veMbjkHJK9RhT-80" target="N_JOfj5veMbjkHJK9RhT-82">
          <mxGeometry relative="1" as="geometry" />
        </mxCell>
        <mxCell id="N_JOfj5veMbjkHJK9RhT-80" value="BlockStatement" style="rounded=1;whiteSpace=wrap;html=1;" vertex="1" parent="1">
          <mxGeometry x="880" y="900" width="140" height="30" as="geometry" />
        </mxCell>
        <mxCell id="N_JOfj5veMbjkHJK9RhT-94" style="edgeStyle=orthogonalEdgeStyle;rounded=0;orthogonalLoop=1;jettySize=auto;html=1;" edge="1" parent="1" source="N_JOfj5veMbjkHJK9RhT-82" target="N_JOfj5veMbjkHJK9RhT-86">
          <mxGeometry relative="1" as="geometry" />
        </mxCell>
        <mxCell id="N_JOfj5veMbjkHJK9RhT-95" value="argument" style="edgeLabel;html=1;align=center;verticalAlign=middle;resizable=0;points=[];" vertex="1" connectable="0" parent="N_JOfj5veMbjkHJK9RhT-94">
          <mxGeometry x="-0.2245" y="-2" relative="1" as="geometry">
            <mxPoint x="-1" as="offset" />
          </mxGeometry>
        </mxCell>
        <mxCell id="N_JOfj5veMbjkHJK9RhT-82" value="ReturnStatement" style="rounded=1;whiteSpace=wrap;html=1;" vertex="1" parent="1">
          <mxGeometry x="1110" y="900" width="140" height="30" as="geometry" />
        </mxCell>
        <mxCell id="N_JOfj5veMbjkHJK9RhT-84" style="edgeStyle=orthogonalEdgeStyle;rounded=0;orthogonalLoop=1;jettySize=auto;html=1;entryX=0;entryY=0.5;entryDx=0;entryDy=0;" edge="1" source="N_JOfj5veMbjkHJK9RhT-86" target="N_JOfj5veMbjkHJK9RhT-89" parent="1">
          <mxGeometry relative="1" as="geometry" />
        </mxCell>
        <mxCell id="N_JOfj5veMbjkHJK9RhT-85" value="callee" style="edgeLabel;html=1;align=center;verticalAlign=middle;resizable=0;points=[];" vertex="1" connectable="0" parent="N_JOfj5veMbjkHJK9RhT-84">
          <mxGeometry x="0.0458" y="2" relative="1" as="geometry">
            <mxPoint y="-1" as="offset" />
          </mxGeometry>
        </mxCell>
        <mxCell id="N_JOfj5veMbjkHJK9RhT-86" value="CallExpression" style="rounded=1;whiteSpace=wrap;html=1;" vertex="1" parent="1">
          <mxGeometry x="1370" y="900" width="140" height="30" as="geometry" />
        </mxCell>
        <mxCell id="N_JOfj5veMbjkHJK9RhT-87" value="" style="rounded=0;whiteSpace=wrap;html=1;" vertex="1" parent="1">
          <mxGeometry x="1610" y="940" width="420" height="140" as="geometry" />
        </mxCell>
        <mxCell id="N_JOfj5veMbjkHJK9RhT-88" value="arguments" style="edgeStyle=orthogonalEdgeStyle;rounded=0;orthogonalLoop=1;jettySize=auto;html=1;entryX=0;entryY=0.5;entryDx=0;entryDy=0;exitX=1;exitY=0.5;exitDx=0;exitDy=0;" edge="1" source="N_JOfj5veMbjkHJK9RhT-86" target="N_JOfj5veMbjkHJK9RhT-87" parent="1">
          <mxGeometry relative="1" as="geometry">
            <mxPoint x="1530" y="1015" as="sourcePoint" />
          </mxGeometry>
        </mxCell>
        <mxCell id="N_JOfj5veMbjkHJK9RhT-97" value="name" style="edgeStyle=orthogonalEdgeStyle;rounded=0;orthogonalLoop=1;jettySize=auto;html=1;" edge="1" parent="1" source="N_JOfj5veMbjkHJK9RhT-89" target="N_JOfj5veMbjkHJK9RhT-96">
          <mxGeometry relative="1" as="geometry" />
        </mxCell>
        <mxCell id="N_JOfj5veMbjkHJK9RhT-89" value="Identifier" style="rounded=1;whiteSpace=wrap;html=1;" vertex="1" parent="1">
          <mxGeometry x="1610" y="810" width="140" height="30" as="geometry" />
        </mxCell>
        <mxCell id="N_JOfj5veMbjkHJK9RhT-90" style="edgeStyle=orthogonalEdgeStyle;rounded=0;orthogonalLoop=1;jettySize=auto;html=1;" edge="1" source="N_JOfj5veMbjkHJK9RhT-92" target="N_JOfj5veMbjkHJK9RhT-93" parent="1">
          <mxGeometry relative="1" as="geometry" />
        </mxCell>
        <mxCell id="N_JOfj5veMbjkHJK9RhT-91" value="value" style="edgeLabel;html=1;align=center;verticalAlign=middle;resizable=0;points=[];" vertex="1" connectable="0" parent="N_JOfj5veMbjkHJK9RhT-90">
          <mxGeometry x="-0.225" y="-1" relative="1" as="geometry">
            <mxPoint as="offset" />
          </mxGeometry>
        </mxCell>
        <mxCell id="N_JOfj5veMbjkHJK9RhT-92" value="Literal" style="rounded=1;whiteSpace=wrap;html=1;" vertex="1" parent="1">
          <mxGeometry x="1630" y="958" width="140" height="30" as="geometry" />
        </mxCell>
        <mxCell id="N_JOfj5veMbjkHJK9RhT-93" value="1" style="rounded=1;whiteSpace=wrap;html=1;" vertex="1" parent="1">
          <mxGeometry x="1850" y="958" width="140" height="30" as="geometry" />
        </mxCell>
        <mxCell id="N_JOfj5veMbjkHJK9RhT-96" value="del" style="rounded=1;whiteSpace=wrap;html=1;" vertex="1" parent="1">
          <mxGeometry x="1820" y="810" width="140" height="30" as="geometry" />
        </mxCell>
        <mxCell id="N_JOfj5veMbjkHJK9RhT-98" value="2" style="rounded=1;whiteSpace=wrap;html=1;" vertex="1" parent="1">
          <mxGeometry x="1850" y="1030" width="140" height="30" as="geometry" />
        </mxCell>
        <mxCell id="N_JOfj5veMbjkHJK9RhT-99" style="edgeStyle=orthogonalEdgeStyle;rounded=0;orthogonalLoop=1;jettySize=auto;html=1;" edge="1" source="N_JOfj5veMbjkHJK9RhT-101" target="N_JOfj5veMbjkHJK9RhT-98" parent="1">
          <mxGeometry relative="1" as="geometry" />
        </mxCell>
        <mxCell id="N_JOfj5veMbjkHJK9RhT-100" value="value" style="edgeLabel;html=1;align=center;verticalAlign=middle;resizable=0;points=[];" vertex="1" connectable="0" parent="N_JOfj5veMbjkHJK9RhT-99">
          <mxGeometry x="-0.225" y="-1" relative="1" as="geometry">
            <mxPoint as="offset" />
          </mxGeometry>
        </mxCell>
        <mxCell id="N_JOfj5veMbjkHJK9RhT-101" value="Literal" style="rounded=1;whiteSpace=wrap;html=1;" vertex="1" parent="1">
          <mxGeometry x="1630" y="1030" width="140" height="30" as="geometry" />
        </mxCell>
      </root>
    </mxGraphModel>
  </diagram>
</mxfile>
